<svg width="119" height="48" viewBox="0 0 119 48" fill="none" xmlns="http://www.w3.org/2000/svg">
<g clip-path="url(#clip0_399_2822)">
<path d="M33.9638 10.0119L30.0171 13.9633L30.0262 13.9724L20.3566 23.6548L24.3033 27.6062L33.9743 17.9238L40.0354 23.9935L23.9651 40.0828L7.89346 23.9935L27.9118 3.95271L23.9651 0L0 23.9935L23.9651 47.9869L47.9302 23.9935L33.9638 10.0119Z" fill="white"/>
<path d="M33.935 0.0144043L9.96997 24.0079L13.854 27.8965L18.1899 23.681L33.935 7.91721L50.0054 24.0079L29.987 44.0499L33.935 48L57.8988 24.0079L33.935 0.0144043Z" fill="#F16601"/>
<path d="M33.9761 20.0235L30.1289 23.8752L34.0768 27.8278L37.924 23.976L33.9761 20.0235Z" fill="#F16601"/>
<path d="M83.2784 23.2443H73.8112C73.5749 23.2443 73.3842 23.4352 73.3842 23.6718V24.3073C73.3842 24.544 73.5749 24.7349 73.8112 24.7349H82.5236C82.3159 29.6591 78.5416 33.7399 74.0973 33.7399C69.41 33.7399 65.5978 29.3662 65.5978 23.9896C65.5978 18.6129 69.4113 14.2379 74.1025 14.2379C77.4054 14.1987 80.319 16.3064 81.356 18.324L81.4513 18.4835C81.5284 18.6116 81.6668 18.6914 81.817 18.6914H82.5157C82.662 18.6914 82.7978 18.6169 82.8762 18.4939C82.9545 18.371 82.965 18.2154 82.9036 18.0834L82.6738 17.5904C81.4566 15.2159 78.0296 12.7002 74.0973 12.746C68.5885 12.746 64.1077 17.7892 64.1077 23.9883C64.1077 30.1873 68.5899 35.2292 74.0973 35.2292C79.6046 35.2292 84.0228 30.186 84.0228 23.9883C84.0228 23.5633 83.7029 23.2416 83.2784 23.2416V23.2443Z" fill="white"/>
<path d="M98.3471 34.4958L98.1199 34.3088C97.3245 33.6537 96.4743 32.8862 95.5902 32.0232C95.8331 31.6806 96.0577 31.3367 96.2706 31.0112C96.8165 30.1743 97.382 29.31 97.7869 29.2996H97.8887C98.1251 29.2996 98.3158 29.1087 98.3158 28.872V28.6654C98.3158 28.4288 98.1251 28.2379 97.8887 28.2379H97.7764C96.84 28.2601 96.1517 29.2891 95.2806 30.5914C95.1344 30.8098 94.9829 31.036 94.8262 31.2635C93.1453 29.5559 91.539 27.7031 90.4106 26.168L90.4824 26.1249C92.3422 25.071 93.656 24.2407 93.6299 23.1685C93.6299 22.401 93.3517 21.7224 92.8241 21.2033C92.256 20.6449 91.3809 20.3076 90.6156 20.322C89.2522 20.3481 87.7633 21.2529 87.7176 23.1855C87.715 23.3999 87.7098 24.0263 88.9126 25.8411C87.7176 26.5904 86.49 27.4716 85.9663 28.5399C85.244 30.0096 85.3172 31.7538 86.1543 33.0941C87.0267 34.4892 88.5992 35.2555 90.5869 35.2555H90.6235C92.6386 35.2555 93.9812 34.0564 94.9424 32.8796C95.8187 33.7322 96.6598 34.4879 97.4316 35.1182C97.5126 35.2058 97.6262 35.2555 97.7464 35.2555H98.0781C98.2583 35.2555 98.419 35.1417 98.4803 34.9717C98.5417 34.8017 98.4895 34.6121 98.3497 34.4971L98.3471 34.4958ZM88.7794 23.1999C88.8238 21.47 90.4471 21.3876 90.6326 21.3837C90.6443 21.3837 90.6548 21.3837 90.6666 21.3837C91.0766 21.3837 91.6526 21.5315 92.0796 21.9512C92.4048 22.2702 92.5707 22.6795 92.5707 23.1777C92.5838 23.702 91.3261 24.4251 90.2173 25.0644L90.0214 25.1782C89.9887 25.1887 89.9574 25.2017 89.9287 25.22L89.7994 25.2972C88.8499 23.872 88.7768 23.3333 88.7794 23.1999ZM90.6208 34.1911C88.9962 34.1741 87.749 33.6119 87.0659 32.5384C86.4142 31.512 86.3502 30.1534 86.8935 29.0041C87.3219 28.1607 88.432 27.3853 89.5173 26.7093C90.7227 28.3673 92.4297 30.3482 94.1862 32.1278C93.3386 33.1908 92.2481 34.1898 90.6195 34.1898L90.6208 34.1911Z" fill="#F16601"/>
<path d="M118.965 34.6344L109.562 13.1985C109.451 12.9396 109.186 12.7735 108.884 12.7722C108.561 12.7774 108.316 12.9383 108.205 13.1946L98.991 34.1911L98.8003 34.6357C98.7441 34.7678 98.7572 34.9194 98.8356 35.0397C98.9139 35.16 99.0484 35.2319 99.1921 35.2319H99.8908C100.074 35.2319 100.237 35.1156 100.296 34.9417L108.883 15.352L117.404 34.7494L117.468 34.9403C117.527 35.1156 117.69 35.2332 117.873 35.2332H118.573C118.717 35.2332 118.851 35.1613 118.93 35.0397C119.009 34.9194 119.021 34.7678 118.965 34.6357V34.6344Z" fill="white"/>
</g>
<defs>
<clipPath id="clip0_399_2822">
<rect width="119" height="48" fill="white"/>
</clipPath>
</defs>
</svg>
