<svg width="68" height="61" viewBox="0 0 68 61" fill="none" xmlns="http://www.w3.org/2000/svg">
<path d="M8.45906 50.34C5.39868 50.3465 2.57145 48.7233 1.05872 46.091C-0.432209 43.4749 -0.342805 40.2583 1.29119 37.7273L16.531 14.0483C18.119 11.4574 20.993 9.91233 24.054 10.0039C27.1128 10.0764 29.895 11.7733 31.3349 14.4445C32.7556 17.1024 32.578 20.3003 30.8764 22.7954L15.6463 46.4743C14.0766 48.8945 11.3654 50.3527 8.45906 50.34Z" fill="#F62B54"/>
<path d="M34.5989 50.3399C31.5251 50.3399 28.6967 48.7137 27.2115 46.1005C25.7239 43.4915 25.8133 40.2831 27.444 37.7592L42.6547 14.1345C44.2198 11.5064 47.1023 9.92506 50.1842 10.0038C53.2838 10.0709 56.0929 11.7864 57.5135 14.4699C58.9245 17.1535 58.7179 20.3705 56.9646 22.8592L41.7571 46.4838C40.1924 48.8936 37.4937 50.3473 34.5989 50.3399Z" fill="#FFCC00"/>
<path d="M60.1545 50.5379C64.4877 50.5379 68.0004 47.1352 68.0004 42.9378C68.0004 38.7403 64.4877 35.3376 60.1545 35.3376C55.8213 35.3376 52.3086 38.7403 52.3086 42.9378C52.3086 47.1352 55.8213 50.5379 60.1545 50.5379Z" fill="#00CA72"/>
</svg>
