<svg width="21" height="21" viewBox="0 0 21 21" fill="none" xmlns="http://www.w3.org/2000/svg">
<g clip-path="url(#clip0_80_2321)">
<path d="M18.5683 0H1.48045C0.661893 0 0 0.646227 0 1.4452V18.6035C0 19.4025 0.661893 20.0526 1.48045 20.0526H18.5683C19.3868 20.0526 20.0526 19.4025 20.0526 18.6074V1.4452C20.0526 0.646227 19.3868 0 18.5683 0ZM5.94921 17.0878H2.97265V7.51582H5.94921V17.0878ZM4.46093 6.21162C3.50529 6.21162 2.73374 5.44006 2.73374 4.48834C2.73374 3.53663 3.50529 2.76507 4.46093 2.76507C5.41264 2.76507 6.1842 3.53663 6.1842 4.48834C6.1842 5.43614 5.41264 6.21162 4.46093 6.21162ZM17.0878 17.0878H14.1152V12.435C14.1152 11.3266 14.0956 9.89707 12.5681 9.89707C11.0211 9.89707 10.7861 11.1073 10.7861 12.3567V17.0878H7.81739V7.51582H10.6686V8.82394H10.7078C11.1034 8.07197 12.0747 7.27691 13.5199 7.27691C16.5317 7.27691 17.0878 9.25868 17.0878 11.8358V17.0878Z" fill="white"/>
</g>
<defs>
<clipPath id="clip0_80_2321">
<rect width="20.0526" height="20.0526" fill="white"/>
</clipPath>
</defs>
</svg>
