<svg width="21" height="21" viewBox="0 0 21 21" fill="none" xmlns="http://www.w3.org/2000/svg">
<g clip-path="url(#clip0_80_2322)">
<path d="M19.8529 6.0158C19.8529 6.0158 19.6571 4.63326 19.0539 4.0262C18.2902 3.22723 17.4364 3.22331 17.0447 3.17632C14.2405 2.97266 10.0302 2.97266 10.0302 2.97266H10.0224C10.0224 2.97266 5.81213 2.97266 3.00789 3.17632C2.61624 3.22331 1.76244 3.22723 0.998715 4.0262C0.39557 4.63326 0.20366 6.0158 0.20366 6.0158C0.20366 6.0158 0 7.64116 0 9.2626V10.7822C0 12.4037 0.199743 14.029 0.199743 14.029C0.199743 14.029 0.395569 15.4116 0.994798 16.0186C1.75852 16.8176 2.76115 16.7902 3.20764 16.8763C4.81342 17.0291 10.0263 17.0761 10.0263 17.0761C10.0263 17.0761 14.2405 17.0682 17.0447 16.8685C17.4364 16.8215 18.2902 16.8176 19.0539 16.0186C19.6571 15.4116 19.8529 14.029 19.8529 14.029C19.8529 14.029 20.0526 12.4076 20.0526 10.7822V9.2626C20.0526 7.64116 19.8529 6.0158 19.8529 6.0158ZM7.95447 12.6269V6.99102L13.371 9.81875L7.95447 12.6269Z" fill="white"/>
</g>
<defs>
<clipPath id="clip0_80_2322">
<rect width="20.0526" height="20.0526" fill="white"/>
</clipPath>
</defs>
</svg>
