<svg width="300" height="100" viewBox="0 0 300 100" fill="none" xmlns="http://www.w3.org/2000/svg">
<g clip-path="url(#clip0_550_3081)">
<mask id="mask0_550_3081" style="mask-type:luminance" maskUnits="userSpaceOnUse" x="82" y="29" width="137" height="42">
<path d="M219 29.7661H82V70.2073H219V29.7661Z" fill="white"/>
</mask>
<g mask="url(#mask0_550_3081)">
<path d="M201.284 67.8033C200.834 68.668 199.52 70.2446 197.23 70.2446H187.846C185.555 70.2446 184.242 68.6679 183.83 67.8408L171.106 42.0069C169.867 39.5657 167.24 38.7787 165.027 38.7787H141.905C139.765 38.7787 138.529 40.1305 138.529 42.1568C138.529 44.2983 139.917 45.535 141.943 45.535H157.858C164.615 45.535 170.245 49.6278 170.245 57.8884C170.245 66.224 164.577 70.2419 157.858 70.2419H137.44C135.601 70.2419 134.063 69.1524 134.063 66.8263V62.3587C134.063 61.6065 134.587 61.2318 135.189 61.2318H153.355C155.231 61.2318 156.732 60.1048 156.732 57.8536C156.732 55.6372 155.268 54.4755 153.355 54.4755H136.278C133.426 54.4755 130.798 53.6859 128.96 52.4866C128.021 63.4509 120.178 70.2098 108.691 70.2098H83.1265C82.4897 70.2098 82 69.835 82 69.0829V46.6271C82 45.8749 82.487 45.5002 83.1265 45.5002H92.1359C94.5387 45.5002 95.5903 47.0393 95.5903 48.8408V60.1048C95.5903 60.857 96.0773 61.2318 96.7168 61.2318C99.1196 61.2318 104.525 61.2318 104.525 61.2318C110.679 61.2318 115.784 57.5137 115.784 50.0052C115.784 42.4566 110.716 38.7787 104.525 38.7787H83.1265C82.5271 38.7787 82.0375 38.4039 82.0375 37.6518V33.1842C82.0375 30.668 83.8383 29.7686 85.4518 29.7686H108.835C115.404 29.7686 121.371 32.2098 124.863 36.6774C126.777 32.0974 131.018 29.7686 136.348 29.7686H169.827C173.956 29.7686 178.609 31.1953 181.012 35.9252L191.86 58.6433C191.972 58.8682 192.197 58.9806 192.459 58.9806C192.721 58.9806 192.946 58.9056 193.058 58.6433C193.058 58.6433 206.459 30.4806 206.534 30.3307C206.608 30.1808 206.871 29.806 207.548 29.806H217.871C218.508 29.806 218.997 30.1808 218.997 30.933C218.997 31.1578 218.96 31.3452 218.885 31.4951L201.284 67.8033Z" fill="white"/>
</g>
</g>
<defs>
<clipPath id="clip0_550_3081">
<rect width="137" height="42" fill="white" transform="translate(82 29)"/>
</clipPath>
</defs>
</svg>
