<svg width="137" height="42" viewBox="0 0 137 42" fill="none" xmlns="http://www.w3.org/2000/svg">
<mask id="mask0_293_2149" style="mask-type:luminance" maskUnits="userSpaceOnUse" x="0" y="0" width="137" height="42">
<path d="M137 0.766113H0V41.2073H137V0.766113Z" fill="white"/>
</mask>
<g mask="url(#mask0_293_2149)">
<path d="M119.284 38.8033C118.834 39.668 117.52 41.2446 115.23 41.2446H105.846C103.555 41.2446 102.242 39.6679 101.83 38.8408L89.1062 13.0069C87.8673 10.5657 85.2397 9.7787 83.0268 9.7787H59.9054C57.7648 9.7787 56.5286 11.1305 56.5286 13.1568C56.5286 15.2983 57.9173 16.535 59.9429 16.535H75.8584C82.6147 16.535 88.2446 20.6278 88.2446 28.8884C88.2446 37.224 82.5773 41.2419 75.8584 41.2419H55.4395C53.6012 41.2419 52.0627 40.1524 52.0627 37.8263V33.3587C52.0627 32.6065 52.5871 32.2318 53.1892 32.2318H71.3551C73.2308 32.2318 74.7319 31.1048 74.7319 28.8536C74.7319 26.6372 73.2682 25.4755 71.3551 25.4755H54.2782C51.4258 25.4755 48.7982 24.6859 46.96 23.4866C46.0208 34.4509 38.178 41.2098 26.6909 41.2098H1.1265C0.489668 41.2098 0 40.835 0 40.0829V17.6271C0 16.8749 0.486992 16.5002 1.1265 16.5002H10.1359C12.5387 16.5002 13.5903 18.0393 13.5903 19.8408V31.1048C13.5903 31.857 14.0773 32.2318 14.7168 32.2318C17.1196 32.2318 22.5247 32.2318 22.5247 32.2318C28.679 32.2318 33.7844 28.5137 33.7844 21.0052C33.7844 13.4566 28.7165 9.7787 22.5247 9.7787H1.1265C0.527129 9.7787 0.0374609 9.40394 0.0374609 8.65176V4.18416C0.0374609 1.66796 1.83826 0.768555 3.45176 0.768555H26.8354C33.4045 0.768555 39.3714 3.2098 42.8633 7.6774C44.7765 3.09738 49.0176 0.768555 54.3478 0.768555H87.8272C91.9559 0.768555 96.6091 2.19529 99.0119 6.92522L109.86 29.6433C109.972 29.8682 110.197 29.9806 110.459 29.9806C110.721 29.9806 110.946 29.9056 111.058 29.6433C111.058 29.6433 124.459 1.48059 124.534 1.33069C124.608 1.18078 124.871 0.80603 125.548 0.80603H135.871C136.508 0.80603 136.997 1.18079 136.997 1.93297C136.997 2.15782 136.96 2.34519 136.885 2.4951L119.284 38.8033Z" fill="white"/>
</g>
</svg>
