<svg width="300" height="100" viewBox="0 0 300 100" fill="none" xmlns="http://www.w3.org/2000/svg">
<path fill-rule="evenodd" clip-rule="evenodd" d="M106.446 60.5021V38.7896H112.221L119.539 55.0151L126.748 38.7896H132.281V60.5021H127.518V47.8708L122.024 60.5021H116.948L111.382 47.9397V60.5021H106.446Z" fill="white"/>
<path fill-rule="evenodd" clip-rule="evenodd" d="M151.446 52.0954L147.461 42.8919L143.568 52.0954H151.446ZM140.006 60.5021H134.405L144.032 38.7896H150.927L160.623 60.5021H155.095L153.186 56.1769H141.855L140.006 60.5021Z" fill="white"/>
<path fill-rule="evenodd" clip-rule="evenodd" d="M162.855 60.5021V38.7896H183.577V43.131H167.86V47.4434H181.336V51.6807H167.86V56.1588H183.615V60.5021H162.855Z" fill="white"/>
<path fill-rule="evenodd" clip-rule="evenodd" d="M192.722 48.7592H203.61V43.131H192.722V48.7592ZM187.646 60.5021V38.7896H204.986C207.303 38.7896 208.648 40.1307 208.648 42.4309V49.7255C208.648 51.4036 207.163 52.9204 204.283 52.9204C204.12 52.9286 203.954 52.9204 203.783 52.9204L208.83 60.5021H203.259L198.474 53.078H192.722V60.5021H187.646Z" fill="white"/>
<path fill-rule="evenodd" clip-rule="evenodd" d="M217.778 60.5148H216.06C213.817 60.5148 212.737 59.218 212.737 57.3298V54.4935H217.778V56.1734H228.49V51.7288C228.49 51.7288 218.164 51.7288 216.203 51.7288C214.242 51.7288 212.829 50.4093 212.829 48.5782V42.1322C212.829 40.1815 214.367 38.8032 216.238 38.8032C218.108 38.8032 230.283 38.8032 230.283 38.8032C232.181 38.8032 233.494 40.2205 233.494 42.2698C233.494 44.3165 233.494 44.8607 233.494 44.8607H228.49V43.1446H217.778V47.4208H230.029C231.838 47.4208 233.494 48.618 233.494 50.9228V57.1198C233.494 59.2307 232.324 60.5148 230.135 60.5148C227.946 60.5148 217.778 60.5148 217.778 60.5148Z" fill="white"/>
<path fill-rule="evenodd" clip-rule="evenodd" d="M238.332 60.5146V38.8003H243.477V47.4849L253.278 38.8003H260.244L248.553 48.8868L260.665 60.5146H253.452L243.477 50.6382V60.5146H238.332Z" fill="white"/>
<path d="M80.0684 25C83.1705 25 85.6846 27.5166 85.6846 30.6201V68.6689C85.6843 71.7722 83.1703 74.2881 80.0684 74.2881H44.6172C41.5144 74.2879 39.0003 71.7721 39 68.6689V30.6201C39 27.5167 41.5143 25.0002 44.6172 25H80.0684ZM59.0312 43.1846L45.7178 36.7695L45.6885 36.8066L54.9014 48.3652L41.5869 54.7793L41.5986 54.8252H56.375L53.0869 69.2393L53.1289 69.2578L62.3438 57.7002L71.5566 69.2578L71.5977 69.2373L68.3115 54.8252H83.0879L83.0986 54.7793L69.7852 48.3652L78.9971 36.8066L78.9678 36.7695L65.6543 43.1846L62.3662 28.7705H62.3193L59.0312 43.1846Z" fill="white"/>
</svg>
