<svg width="222" height="50" viewBox="0 0 222 50" fill="none" xmlns="http://www.w3.org/2000/svg">
<path fill-rule="evenodd" clip-rule="evenodd" d="M67.4463 35.5021V13.7896H73.2215L80.5391 30.0151L87.7481 13.7896H93.2807V35.5021H88.5184V22.8708L83.0239 35.5021H77.9475L72.3823 22.9397V35.5021H67.4463Z" fill="white"/>
<path fill-rule="evenodd" clip-rule="evenodd" d="M112.446 27.0954L108.461 17.8919L104.568 27.0954H112.446ZM101.006 35.5021H95.4053L105.032 13.7896H111.927L121.623 35.5021H116.095L114.186 31.1769H102.855L101.006 35.5021Z" fill="white"/>
<path fill-rule="evenodd" clip-rule="evenodd" d="M123.855 35.5021V13.7896H144.577V18.131H128.86V22.4434H142.336V26.6807H128.86V31.1588H144.615V35.5021H123.855Z" fill="white"/>
<path fill-rule="evenodd" clip-rule="evenodd" d="M153.722 23.7592H164.61V18.131H153.722V23.7592ZM148.646 35.5021V13.7896H165.986C168.303 13.7896 169.648 15.1307 169.648 17.4309V24.7255C169.648 26.4036 168.163 27.9204 165.283 27.9204C165.12 27.9286 164.954 27.9204 164.783 27.9204L169.83 35.5021H164.259L159.474 28.078H153.722V35.5021H148.646Z" fill="white"/>
<path fill-rule="evenodd" clip-rule="evenodd" d="M178.778 35.5148H177.06C174.817 35.5148 173.737 34.218 173.737 32.3298V29.4935H178.778V31.1734H189.49V26.7288C189.49 26.7288 179.164 26.7288 177.203 26.7288C175.242 26.7288 173.829 25.4093 173.829 23.5782V17.1322C173.829 15.1815 175.367 13.8032 177.238 13.8032C179.108 13.8032 191.283 13.8032 191.283 13.8032C193.181 13.8032 194.494 15.2205 194.494 17.2698C194.494 19.3165 194.494 19.8607 194.494 19.8607H189.49V18.1446H178.778V22.4208H191.029C192.838 22.4208 194.494 23.618 194.494 25.9228V32.1198C194.494 34.2307 193.324 35.5148 191.135 35.5148C188.946 35.5148 178.778 35.5148 178.778 35.5148Z" fill="white"/>
<path fill-rule="evenodd" clip-rule="evenodd" d="M199.332 35.5146V13.8003H204.477V22.4849L214.278 13.8003H221.244L209.553 23.8868L221.665 35.5146H214.452L204.477 25.6382V35.5146H199.332Z" fill="white"/>
<path d="M41.0684 0C44.1705 0 46.6846 2.51665 46.6846 5.62012V43.6689C46.6843 46.7722 44.1703 49.2881 41.0684 49.2881H5.61719C2.51445 49.2879 0.000252189 46.7721 0 43.6689V5.62012C0 2.51674 2.51429 0.0001503 5.61719 0H41.0684ZM20.0312 18.1846L6.71777 11.7695L6.68848 11.8066L15.9014 23.3652L2.58691 29.7793L2.59863 29.8252H17.375L14.0869 44.2393L14.1289 44.2578L23.3438 32.7002L32.5566 44.2578L32.5977 44.2373L29.3115 29.8252H44.0879L44.0986 29.7793L30.7852 23.3652L39.9971 11.8066L39.9678 11.7695L26.6543 18.1846L23.3662 3.77051H23.3193L20.0312 18.1846Z" fill="white"/>
</svg>
