<svg width="300" height="100" viewBox="0 0 300 100" fill="none" xmlns="http://www.w3.org/2000/svg">
<path d="M122.641 39.763C122.641 37.941 121.681 37.2832 119.904 37.2832H118.794L115.095 49.6818L116.352 49.7549C120.793 49.828 122.641 43.4103 122.641 39.763ZM174.289 45.9631C174.289 44.9417 173.55 44.2856 172.588 44.2856C170.294 44.2856 169.48 48.0043 169.035 49.6818H173.476C173.77 48.4428 174.289 47.2021 174.289 45.9631ZM129.08 41.3674C129.08 49.3912 123.234 51.5786 116.278 51.5786H114.576L112.209 58.7985H105.994L112.283 37.3563V37.2832H109.544L110.063 35.4613L110.138 35.3882H121.532C125.676 35.3882 129.08 36.7734 129.08 41.3674ZM163.783 43.118L154.163 56.9748L159.86 57.0479L159.268 58.7985H145.506L155.125 45.0147H149.502L150.093 43.118H163.783ZM179.913 48.3698C179.913 49.4626 179.69 50.5571 179.394 51.5786H168.444C167.999 52.8907 167.482 54.4951 167.482 55.882C167.482 57.0479 168.147 57.6309 169.258 57.6309C171.255 57.6309 171.996 54.7144 172.513 53.2561H178.876C177.693 57.1941 173.401 59.6007 169.406 59.6007C165.188 59.6007 161.933 57.4864 161.933 53.0369C161.933 47.2021 166.668 42.3888 172.662 42.3888C176.435 42.3888 179.913 44.1394 179.913 48.3698ZM201 49.4626C201 27.8029 167.704 20 150.39 20C133.444 20 100 27.7298 100 49.245C100 61.2782 111.172 69.4465 121.384 73.6038H121.458L131.151 40.7113C133.223 33.7107 136.257 26.4177 144.913 26.4177C147.948 26.4177 151.943 27.7298 151.943 31.3771C151.943 33.4183 150.39 35.3151 148.243 35.3151C146.468 35.3151 144.987 33.9299 144.987 32.1793C144.987 30.0633 146.615 29.0436 148.539 28.9705C147.948 27.8029 146.541 27.3661 145.284 27.3661C139.364 27.3661 138.033 39.18 136.848 43.118H147.577L142.99 58.7985H136.774L140.843 45.0878H136.257L130.042 65.8723C129.08 69.1542 127.821 72.29 127.23 75.645C134.629 77.9055 142.471 79 150.241 79C167.482 79 201 71.5608 201 49.4626ZM198.115 45.8169C198.115 47.6406 196.636 49.172 194.785 49.172C193.232 49.172 191.825 47.7851 191.825 46.2537C191.825 45.9631 191.899 45.5977 191.973 45.3054H191.825C188.643 47.6406 187.164 55.9534 186.276 58.7985H180.061L184.13 45.0878L181.689 45.0147L182.354 43.118H190.79L189.976 45.89C191.085 44.2125 192.861 42.8273 195.008 42.8273C196.71 42.8273 198.115 44.1394 198.115 45.8169Z" fill="white"/>
</svg>
