<svg width="101" height="59" viewBox="0 0 101 59" fill="none" xmlns="http://www.w3.org/2000/svg">
<path d="M22.641 19.763C22.641 17.941 21.6805 17.2832 19.9044 17.2832H18.7939L15.0952 29.6818L16.3522 29.7549C20.7925 29.828 22.641 23.4103 22.641 19.763ZM74.2894 25.9631C74.2894 24.9417 73.5497 24.2856 72.5875 24.2856C70.2941 24.2856 69.4802 28.0043 69.0353 29.6818H73.4755C73.7704 28.4428 74.2894 27.2021 74.2894 25.9631ZM29.0798 21.3674C29.0798 29.3912 23.2342 31.5786 16.2781 31.5786H14.5761L12.2086 38.7985H5.99392L12.2827 17.3563V17.2832H9.5444L10.0634 15.4613L10.1376 15.3882H21.5323C25.6759 15.3882 29.0798 16.7734 29.0798 21.3674ZM63.7828 23.118L54.1626 36.9748L59.8599 37.0479L59.2684 38.7985H45.5062L55.1248 25.0147H49.5016L50.093 23.118H63.7828ZM79.9126 28.3698C79.9126 29.4626 79.6902 30.5571 79.3936 31.5786H68.4438C67.9989 32.8907 67.4816 34.4951 67.4816 35.882C67.4816 37.0479 68.1472 37.6309 69.2577 37.6309C71.2546 37.6309 71.996 34.7144 72.5134 33.2561H78.8763C77.6934 37.1941 73.4014 39.6007 69.406 39.6007C65.1882 39.6007 61.9326 37.4864 61.9326 33.0369C61.9326 27.2021 66.6677 22.3888 72.6616 22.3888C76.4346 22.3888 79.9126 24.1394 79.9126 28.3698ZM101 29.4626C101 7.80285 67.7041 -2.67029e-05 50.3896 -2.67029e-05C33.4442 -2.67029e-05 0 7.72977 0 29.245C0 41.2782 11.1722 49.4465 21.3839 53.6038H21.4581L31.1508 20.7113C33.2235 13.7107 36.2567 6.41768 44.913 6.41768C47.9479 6.41768 51.9433 7.72977 51.9433 11.3771C51.9433 13.4183 50.3896 15.3151 48.2428 15.3151C46.4684 15.3151 44.9872 13.9299 44.9872 12.1793C44.9872 10.0633 46.615 9.04356 48.5394 8.97048C47.9479 7.80285 46.5408 7.36605 45.2838 7.36605C39.364 7.36605 38.0328 19.18 36.8481 23.118H47.5772L42.9904 38.7985H36.774L40.8435 25.0878H36.2567L30.042 45.8723C29.0798 49.1542 27.821 52.29 27.2296 55.645C34.6289 57.9055 42.4713 59 50.2414 59C67.4816 59 101 51.5608 101 29.4626ZM98.1151 25.8169C98.1151 27.6406 96.6356 29.172 94.7854 29.172C93.2317 29.172 91.8246 27.7851 91.8246 26.2537C91.8246 25.9631 91.8988 25.5977 91.9729 25.3054H91.8246C88.6431 27.6406 87.1636 35.9534 86.2756 38.7985H80.0609L84.1305 25.0878L81.6887 25.0147L82.3543 23.118H90.79L89.9761 25.89C91.0849 24.2125 92.8609 22.8273 95.0078 22.8273C96.7098 22.8273 98.1151 24.1394 98.1151 25.8169Z" fill="white"/>
</svg>
