<svg width="300" height="100" viewBox="0 0 300 100" fill="none" xmlns="http://www.w3.org/2000/svg">
<path fill-rule="evenodd" clip-rule="evenodd" d="M84.6385 24.4278C83.2893 24.1191 81.2451 24 79.973 24C72.4889 24 72.2188 30.7627 72.2188 31.7761C72.2188 37.9922 77.4627 38.6164 77.4627 41.4915C77.4627 42.7346 76.6529 43.3939 75.498 43.3939C74.8779 43.3939 74.0327 43.2791 72.4502 42.8532L72.6423 49.6935C73.338 49.6935 74.3014 49.8843 75.6901 49.8843C80.5109 49.8843 85.1032 48.6817 85.1032 41.5301C85.1032 35.1161 79.4709 35.0385 79.4709 32.0467C79.4709 30.5688 80.5107 30.0631 81.8231 30.0631C82.4012 30.0631 83.9043 30.337 84.6385 30.9575V24.4278Z" fill="white"/>
<path fill-rule="evenodd" clip-rule="evenodd" d="M90.1934 49.3029H103.501L105.158 42.7753H96.5981V40.1701H101.61V33.6806H96.5981V31.0747H104.311L103.348 24.5845H90.1934V49.3029Z" fill="white"/>
<path fill-rule="evenodd" clip-rule="evenodd" d="M109.402 49.3029H115.806V38.7724L125.065 49.3029H128.148V24.5845H121.746V35.4696L112.256 24.5845H109.402V49.3029Z" fill="white"/>
<path fill-rule="evenodd" clip-rule="evenodd" d="M147.976 24.5845H144.195H140.726L132.16 49.3029H139.065L139.954 46.5431H144.195H148.4L149.326 49.3029H156.231L147.976 24.5845ZM144.195 40.4433H141.92L144.158 33.5656H144.195H144.236L146.51 40.4433H144.195Z" fill="white"/>
<path fill-rule="evenodd" clip-rule="evenodd" d="M158.506 30.8031H163.405V49.3029H169.808V30.8031H174.823L174.205 24.5845H159.161L158.506 30.8031Z" fill="white"/>
<path fill-rule="evenodd" clip-rule="evenodd" d="M190.444 24C183.579 24 177.831 29.7537 177.831 36.9458C177.831 44.0982 183.579 49.8845 190.444 49.8845C197.272 49.8845 203.058 44.0982 203.058 36.9458C203.058 29.7537 197.272 24 190.444 24ZM190.444 43.24C187.125 43.24 184.39 40.4431 184.39 36.9458C184.39 33.4472 187.125 30.6079 190.444 30.6079C193.762 30.6079 196.499 33.5653 196.499 36.9458C196.499 40.2856 193.762 43.24 190.444 43.24Z" fill="white"/>
<path fill-rule="evenodd" clip-rule="evenodd" d="M221.264 38.5373C223.427 37.138 224.622 35.1568 224.622 32.5114C224.622 27.2266 221.227 24.5845 216.364 24.5845H216.288H207.956V49.3029H214.363V39.0806H214.437L216.288 43.4741L218.757 49.3026H225.971L221.264 38.5373ZM216.288 35.9328C215.75 36.0886 215.097 36.167 214.363 36.167V30.0633C215.097 30.0633 215.75 30.1412 216.288 30.2968C217.524 30.6864 218.218 31.5787 218.218 33.1345C218.218 34.6512 217.524 35.5456 216.288 35.9328Z" fill="white"/>
<path fill-rule="evenodd" clip-rule="evenodd" d="M69.557 63.4904V47.6719L50 54.8609L69.557 63.4904Z" fill="white"/>
<path fill-rule="evenodd" clip-rule="evenodd" d="M229.444 63.4904V47.6719L249 54.8609L229.444 63.4904Z" fill="white"/>
<path fill-rule="evenodd" clip-rule="evenodd" d="M73.7225 61.3516L72.9883 61.6238V76.8228L73.7225 76.5911V61.3516Z" fill="white"/>
<path fill-rule="evenodd" clip-rule="evenodd" d="M89.8453 61.3513L89.1135 61.6236V74.996L77.0781 61.2354V76.8226L77.813 76.5909V63.1015L89.8453 76.8998V61.3513Z" fill="white"/>
<path fill-rule="evenodd" clip-rule="evenodd" d="M96.326 76.8228L97.0602 76.5911V62.2476H101.572L101.456 61.5078H91.8922L91.7754 62.2476H96.326V76.8228Z" fill="white"/>
<path fill-rule="evenodd" clip-rule="evenodd" d="M103.501 76.7078H110.677L111.062 75.9687H104.234V69.2427H109.788V68.5437H104.234V62.2476H110.561L110.291 61.5078H103.501V76.7078Z" fill="white"/>
<path fill-rule="evenodd" clip-rule="evenodd" d="M116.5 71.8465L115.15 70.2931C115.614 70.2526 116.076 70.1757 116.5 70.0206C118.428 69.4769 119.894 68.0799 119.894 65.7853C119.894 63.2215 118.428 62.1683 116.5 61.7408C115.69 61.5483 114.764 61.5078 113.878 61.5078H113.145V76.8231L113.878 76.5911V69.8665L116.5 72.8964L119.971 76.8228L120.59 76.3951L116.5 71.8465ZM113.879 62.2476H114.495C115.188 62.2476 115.883 62.3238 116.5 62.4808C118.004 62.9088 119.161 63.8415 119.161 65.7046C119.161 67.9618 117.889 68.9326 116.5 69.3216C115.537 69.6724 114.534 69.7105 113.878 69.7496V62.2476H113.879Z" fill="white"/>
<path fill-rule="evenodd" clip-rule="evenodd" d="M135.325 61.3513L134.591 61.6236V74.996L122.557 61.2354V76.8226L123.29 76.5909V63.1015L135.325 76.8998V61.3513Z" fill="white"/>
<path fill-rule="evenodd" clip-rule="evenodd" d="M144.622 61.3901V61.3516L137.331 76.5908L138.062 76.8228L141.417 69.5536H144.622H147.862L151.368 76.8228L152.102 76.5908L144.622 61.3901ZM144.622 68.8166H141.765L144.622 62.7128V62.7518L147.513 68.8166H144.622Z" fill="white"/>
<path fill-rule="evenodd" clip-rule="evenodd" d="M157.155 76.8228L157.889 76.5911V62.2476H162.325L162.171 61.5078H152.759L152.643 62.2476H157.155V76.8228Z" fill="white"/>
<path fill-rule="evenodd" clip-rule="evenodd" d="M164.986 61.3516L164.254 61.6238V76.8228L164.986 76.5911V61.3516Z" fill="white"/>
<path fill-rule="evenodd" clip-rule="evenodd" d="M175.478 61.1196C171.12 61.1196 167.572 64.6966 167.572 69.0865C167.572 73.5193 171.12 76.9001 175.478 76.9001C179.875 76.9001 183.425 73.5196 183.425 69.0865C183.425 64.6964 179.875 61.1196 175.478 61.1196ZM175.478 76.3561C171.543 76.3561 168.304 73.0923 168.304 69.0865C168.304 65.1213 171.543 61.8587 175.478 61.8587C179.451 61.8587 182.69 65.1211 182.69 69.0865C182.69 73.0923 179.451 76.3561 175.478 76.3561Z" fill="white"/>
<path fill-rule="evenodd" clip-rule="evenodd" d="M198.777 61.3513L198.043 61.6236V74.996L186.009 61.2354V76.8226L186.742 76.5909V63.1015L198.777 76.8998V61.3513Z" fill="white"/>
<path fill-rule="evenodd" clip-rule="evenodd" d="M208.074 61.4697L208.032 61.3516L200.742 76.5908L201.438 76.8228L204.833 69.5536H208.074H211.273L214.825 76.8228L215.556 76.5908L208.074 61.4697ZM208.074 68.8166H205.219L208.032 62.7128L208.074 62.7923L210.965 68.8166H208.074Z" fill="white"/>
<path fill-rule="evenodd" clip-rule="evenodd" d="M218.255 76.7078H225.856L226.203 75.9687H218.99V61.3516L218.255 61.6238V76.7078Z" fill="white"/>
<path d="M226.008 53.8892H72.5674V57.3883H226.008V53.8892Z" fill="white"/>
</svg>
