<svg width="199" height="53" viewBox="0 0 199 53" fill="none" xmlns="http://www.w3.org/2000/svg">
<path fill-rule="evenodd" clip-rule="evenodd" d="M34.6385 0.427773C33.2893 0.11909 31.2451 0 29.973 0C22.4889 0 22.2188 6.76267 22.2188 7.77613C22.2188 13.9922 27.4627 14.6164 27.4627 17.4915C27.4627 18.7346 26.6529 19.3939 25.498 19.3939C24.8779 19.3939 24.0327 19.2791 22.4502 18.8532L22.6423 25.6935C23.338 25.6935 24.3014 25.8843 25.6901 25.8843C30.5109 25.8843 35.1032 24.6817 35.1032 17.5301C35.1032 11.1161 29.4709 11.0385 29.4709 8.0467C29.4709 6.56879 30.5107 6.06313 31.8231 6.06313C32.4012 6.06313 33.9043 6.33704 34.6385 6.9575V0.427773Z" fill="white"/>
<path fill-rule="evenodd" clip-rule="evenodd" d="M40.1934 25.3029H53.5007L55.1581 18.7753H46.5981V16.1701H51.6104V9.6806H46.5981V7.07466H54.3114L53.348 0.584473H40.1934V25.3029Z" fill="white"/>
<path fill-rule="evenodd" clip-rule="evenodd" d="M59.4023 25.3029H65.8062V14.7724L75.0649 25.3029H78.1481V0.584473H71.7464V11.4696L62.2561 0.584473H59.4023V25.3029Z" fill="white"/>
<path fill-rule="evenodd" clip-rule="evenodd" d="M97.9756 0.584473H94.1953H90.7256L82.1602 25.3029H89.0651L89.9536 22.5431H94.1953H98.4002L99.326 25.3029H106.231L97.9756 0.584473ZM94.1953 16.4433H91.9205L94.1584 9.56556H94.1953H94.2355L96.5096 16.4433H94.1953Z" fill="white"/>
<path fill-rule="evenodd" clip-rule="evenodd" d="M108.506 6.80314H113.405V25.3029H119.808V6.80314H124.823L124.205 0.584473H109.161L108.506 6.80314Z" fill="white"/>
<path fill-rule="evenodd" clip-rule="evenodd" d="M140.444 0C133.579 0 127.831 5.75374 127.831 12.9458C127.831 20.0982 133.579 25.8845 140.444 25.8845C147.272 25.8845 153.058 20.0982 153.058 12.9458C153.058 5.75374 147.272 0 140.444 0ZM140.444 19.24C137.125 19.24 134.39 16.4431 134.39 12.9458C134.39 9.44721 137.125 6.60785 140.444 6.60785C143.762 6.60785 146.499 9.56534 146.499 12.9458C146.499 16.2856 143.762 19.24 140.444 19.24Z" fill="white"/>
<path fill-rule="evenodd" clip-rule="evenodd" d="M171.264 14.5373C173.427 13.138 174.622 11.1568 174.622 8.51137C174.622 3.22661 171.227 0.584473 166.364 0.584473H166.288H157.956V25.3029H164.363V15.0806H164.437L166.288 19.4741L168.757 25.3026H175.971L171.264 14.5373ZM166.288 11.9328C165.75 12.0886 165.097 12.167 164.363 12.167V6.06335C165.097 6.06335 165.75 6.14123 166.288 6.29676C167.524 6.68643 168.218 7.57865 168.218 9.13445C168.218 10.6512 167.524 11.5456 166.288 11.9328Z" fill="white"/>
<path fill-rule="evenodd" clip-rule="evenodd" d="M19.557 39.4904V23.6719L0 30.8609L19.557 39.4904Z" fill="white"/>
<path fill-rule="evenodd" clip-rule="evenodd" d="M179.444 39.4904V23.6719L199 30.8609L179.444 39.4904Z" fill="white"/>
<path fill-rule="evenodd" clip-rule="evenodd" d="M23.7225 37.3516L22.9883 37.6238V52.8228L23.7225 52.5911V37.3516Z" fill="white"/>
<path fill-rule="evenodd" clip-rule="evenodd" d="M39.8453 37.3513L39.1135 37.6236V50.996L27.0781 37.2354V52.8226L27.813 52.5909V39.1015L39.8453 52.8998V37.3513Z" fill="white"/>
<path fill-rule="evenodd" clip-rule="evenodd" d="M46.326 52.8228L47.0602 52.5911V38.2476H51.5723L51.4563 37.5078H41.8922L41.7754 38.2476H46.326V52.8228Z" fill="white"/>
<path fill-rule="evenodd" clip-rule="evenodd" d="M53.501 52.7078H60.677L61.0623 51.9687H54.2344V45.2427H59.7885V44.5437H54.2344V38.2476H60.5612L60.291 37.5078H53.501V52.7078Z" fill="white"/>
<path fill-rule="evenodd" clip-rule="evenodd" d="M66.5001 47.8465L65.1499 46.2931C65.6139 46.2526 66.0763 46.1757 66.5001 46.0206C68.4284 45.4769 69.8944 44.0799 69.8944 41.7853C69.8944 39.2215 68.4284 38.1683 66.5001 37.7408C65.6896 37.5483 64.7639 37.5078 63.8785 37.5078H63.1445V52.8231L63.8785 52.5911V45.8665L66.5001 48.8964L69.9707 52.8228L70.5898 52.3951L66.5001 47.8465ZM63.8787 38.2476H64.4947C65.1877 38.2476 65.8827 38.3238 66.5001 38.4808C68.0039 38.9088 69.1609 39.8415 69.1609 41.7046C69.1609 43.9618 67.8895 44.9326 66.5001 45.3216C65.5369 45.6724 64.5339 45.7105 63.8785 45.7496V38.2476H63.8787Z" fill="white"/>
<path fill-rule="evenodd" clip-rule="evenodd" d="M85.3253 37.3513L84.5911 37.6236V50.996L72.5566 37.2354V52.8226L73.2899 52.5909V39.1015L85.3253 52.8998V37.3513Z" fill="white"/>
<path fill-rule="evenodd" clip-rule="evenodd" d="M94.6222 37.3901V37.3516L87.3311 52.5908L88.0622 52.8228L91.417 45.5536H94.622H97.8619L101.368 52.8228L102.102 52.5908L94.6222 37.3901ZM94.6222 44.8166H91.7654L94.6222 38.7128V38.7518L97.5126 44.8166H94.6222Z" fill="white"/>
<path fill-rule="evenodd" clip-rule="evenodd" d="M107.155 52.8228L107.889 52.5911V38.2476H112.325L112.171 37.5078H102.759L102.643 38.2476H107.155V52.8228Z" fill="white"/>
<path fill-rule="evenodd" clip-rule="evenodd" d="M114.986 37.3516L114.254 37.6238V52.8228L114.986 52.5911V37.3516Z" fill="white"/>
<path fill-rule="evenodd" clip-rule="evenodd" d="M125.478 37.1196C121.12 37.1196 117.572 40.6966 117.572 45.0865C117.572 49.5193 121.12 52.9001 125.478 52.9001C129.875 52.9001 133.425 49.5196 133.425 45.0865C133.425 40.6964 129.875 37.1196 125.478 37.1196ZM125.478 52.3561C121.543 52.3561 118.304 49.0923 118.304 45.0865C118.304 41.1213 121.543 37.8587 125.478 37.8587C129.451 37.8587 132.69 41.1211 132.69 45.0865C132.69 49.0923 129.451 52.3561 125.478 52.3561Z" fill="white"/>
<path fill-rule="evenodd" clip-rule="evenodd" d="M148.777 37.3513L148.043 37.6236V50.996L136.009 37.2354V52.8226L136.742 52.5909V39.1015L148.777 52.8998V37.3513Z" fill="white"/>
<path fill-rule="evenodd" clip-rule="evenodd" d="M158.074 37.4697L158.032 37.3516L150.742 52.5908L151.438 52.8228L154.833 45.5536H158.074H161.273L164.825 52.8228L165.556 52.5908L158.074 37.4697ZM158.074 44.8166H155.219L158.032 38.7128L158.074 38.7923L160.965 44.8166H158.074Z" fill="white"/>
<path fill-rule="evenodd" clip-rule="evenodd" d="M168.255 52.7078H175.856L176.203 51.9687H168.99V37.3516L168.255 37.6238V52.7078Z" fill="white"/>
<path d="M176.008 29.8892H22.5674V33.3883H176.008V29.8892Z" fill="white"/>
</svg>
