<svg width="300" height="100" viewBox="0 0 300 100" fill="none" xmlns="http://www.w3.org/2000/svg">
<path d="M102.177 27.6486C103.02 27.6486 103.635 28.1027 103.83 28.9135L112.288 59.3676L120.843 28.9135C121.038 28.1351 121.621 27.6486 122.496 27.6486H136.301C136.949 27.6486 137.403 28.2973 137.208 28.9135L123.598 72.4703C123.338 73.3135 122.755 73.7351 121.88 73.7351H102.436C101.594 73.7351 100.978 73.3459 100.719 72.4703L87.0433 28.9135C86.8489 28.3297 87.335 27.6486 87.9831 27.6486H102.177ZM139.768 36.3405C139.768 31.2162 143.981 27 149.101 27C154.222 27 158.434 31.2162 158.434 36.3405C158.434 41.4649 154.222 45.6811 149.101 45.6811C143.981 45.6811 139.768 41.4649 139.768 36.3405ZM157.462 72.373C157.462 73.1514 156.944 73.7027 156.134 73.7027H142.069C141.291 73.7027 140.741 73.1838 140.741 72.373V50.6108C140.741 49.8324 141.259 49.2811 142.069 49.2811H156.134C156.911 49.2811 157.462 49.8 157.462 50.6108V72.373ZM162.258 72.0486L175.545 50.6757L162.258 29.3027C161.772 28.5243 162.194 27.6486 163.101 27.6486H178.137C179.174 27.6486 179.79 27.973 180.244 28.7514L187.535 41.4973L194.827 28.7514C195.313 27.973 195.896 27.6486 196.933 27.6486H211.646C212.553 27.6486 212.974 28.4919 212.488 29.3027L199.202 50.6757L212.488 72.0486C212.942 72.827 212.553 73.7027 211.646 73.7027H196.609C195.572 73.7027 194.956 73.3784 194.503 72.6L187.211 59.8541L179.92 72.6C179.466 73.3784 178.883 73.7027 177.813 73.7027H163.101C162.194 73.7027 161.772 72.8595 162.258 72.0486Z" fill="white"/>
</svg>
