<svg width="75" height="48" viewBox="0 0 75 48" fill="none" xmlns="http://www.w3.org/2000/svg">
<g clip-path="url(#clip0_293_2145)">
<path d="M-35.5378 0.648649C-34.6952 0.648649 -34.0795 1.1027 -33.8851 1.91351L-25.427 32.3676L-16.8717 1.91351C-16.6773 1.13514 -16.094 0.648649 -15.219 0.648649H-1.41394C-0.765812 0.648649 -0.312126 1.2973 -0.506565 1.91351L-14.1172 45.4703C-14.3765 46.3135 -14.9598 46.7351 -15.8347 46.7351H-35.2785C-36.1211 46.7351 -36.7368 46.3459 -36.9961 45.4703L-50.6715 1.91351C-50.866 1.32973 -50.3799 0.648649 -49.7317 0.648649H-35.5378ZM2.05354 9.34054C2.05354 4.21622 6.26636 0 11.3866 0C16.5068 0 20.7196 4.21622 20.7196 9.34054C20.7196 14.4649 16.5068 18.6811 11.3866 18.6811C6.26636 18.6811 2.05354 14.4649 2.05354 9.34054ZM19.7474 45.373C19.7474 46.1514 19.2289 46.7027 18.4187 46.7027H4.35438C3.57663 46.7027 3.02573 46.1838 3.02573 45.373V23.6108C3.02573 22.8324 3.54422 22.2811 4.35438 22.2811H18.4187C19.1965 22.2811 19.7474 22.8 19.7474 23.6108V45.373ZM24.5435 45.0486L37.8301 23.6757L24.5435 2.3027C24.0574 1.52432 24.4787 0.648649 25.3861 0.648649H40.4226C41.4596 0.648649 42.0753 0.972973 42.529 1.75135L49.8204 14.4973L57.1119 1.75135C57.598 0.972973 58.1813 0.648649 59.2183 0.648649H73.9307C74.8381 0.648649 75.2594 1.49189 74.7733 2.3027L61.4867 23.6757L74.7733 45.0486C75.227 45.827 74.8381 46.7027 73.9307 46.7027H58.8942C57.8572 46.7027 57.2415 46.3784 56.7878 45.6L49.4964 32.8541L42.205 45.6C41.7513 46.3784 41.168 46.7027 40.0985 46.7027H25.3861C24.4787 46.7027 24.0574 45.8595 24.5435 45.0486Z" fill="white"/>
</g>
<defs>
<clipPath id="clip0_293_2145">
<rect width="127" height="48" fill="white" transform="translate(-52)"/>
</clipPath>
</defs>
</svg>
